<svg width="52" height="52" viewBox="0 0 52 52" fill="none" xmlns="http://www.w3.org/2000/svg">
<rect width="52" height="52" fill="white" style="mix-blend-mode:multiply"/>
<path d="M34.1249 46.1727L25.9999 38.0461L28.296 35.75L34.1249 41.5773L46.4505 29.25L48.7499 31.5494L34.1249 46.1727Z" fill="#42BE65"/>
<path d="M19.4999 25.3338L15.2911 21.125L12.9999 23.4163L19.4999 29.9163L30.8749 18.5413L28.5836 16.25L19.4999 25.3338Z" fill="#42BE65"/>
<path d="M19.2062 41.9286C15.4182 41.2254 11.9236 39.4151 9.164 36.7265C6.40445 34.0378 4.50381 30.5915 3.70226 26.823C2.90072 23.0545 3.23425 19.133 4.66071 15.554C6.08716 11.975 8.54252 8.8992 11.7165 6.71521C14.8905 4.53123 18.6406 3.33711 22.493 3.28376C26.3455 3.23041 30.1272 4.32022 33.3605 6.41548C36.5937 8.51073 39.1333 11.5174 40.6583 15.0555C42.1833 18.5936 42.6253 22.5044 41.9285 26.2936L38.7324 25.7064C39.3168 22.5458 38.9508 19.283 37.6808 16.3304C36.4109 13.3778 34.2939 10.8681 31.5977 9.11858C28.9014 7.36908 25.7469 6.45836 22.5331 6.50158C19.3193 6.54479 16.1904 7.54001 13.5422 9.36137C10.894 11.1827 8.84526 13.7485 7.65515 16.7341C6.46503 19.7198 6.18695 22.9913 6.85607 26.135C7.52518 29.2787 9.11145 32.1534 11.4143 34.3956C13.7171 36.6378 16.6331 38.1468 19.7935 38.7319L19.2062 41.9286Z" fill="#42BE65"/>
</svg>
