<svg width="24" height="24" viewBox="0 0 24 24" fill="none" xmlns="http://www.w3.org/2000/svg">
<rect width="24" height="24" fill="white" style="mix-blend-mode:multiply"/>
<path d="M18 14.25H16.5V18H18V14.25Z" fill="#4589FF"/>
<path d="M17.25 23.25C16.0633 23.25 14.9033 22.8981 13.9166 22.2388C12.9299 21.5795 12.1608 20.6425 11.7067 19.5461C11.2526 18.4497 11.1338 17.2433 11.3653 16.0795C11.5968 14.9156 12.1682 13.8465 13.0074 13.0074C13.8465 12.1682 14.9156 11.5968 16.0795 11.3653C17.2433 11.1338 18.4497 11.2526 19.5461 11.7067C20.6425 12.1608 21.5795 12.9299 22.2388 13.9166C22.8981 14.9033 23.25 16.0633 23.25 17.25C23.25 18.8413 22.6179 20.3674 21.4926 21.4926C20.3674 22.6179 18.8413 23.25 17.25 23.25ZM17.25 12.75C16.36 12.75 15.49 13.0139 14.7499 13.5084C14.0099 14.0029 13.4331 14.7057 13.0925 15.5279C12.7519 16.3502 12.6628 17.255 12.8365 18.1279C13.0101 19.0008 13.4387 19.8026 14.068 20.432C14.6974 21.0613 15.4992 21.4899 16.3721 21.6635C17.245 21.8372 18.1498 21.7481 18.9721 21.4075C19.7943 21.0669 20.4971 20.4901 20.9916 19.7501C21.4861 19.01 21.75 18.14 21.75 17.25C21.75 16.0565 21.2759 14.9119 20.432 14.068C19.5881 13.2241 18.4435 12.75 17.25 12.75Z" fill="#4589FF"/>
<path d="M17.25 20.25C17.6642 20.25 18 19.9142 18 19.5C18 19.0858 17.6642 18.75 17.25 18.75C16.8358 18.75 16.5 19.0858 16.5 19.5C16.5 19.9142 16.8358 20.25 17.25 20.25Z" fill="#4589FF"/>
<path d="M15 1.5H3C2.60218 1.5 2.22064 1.65804 1.93934 1.93934C1.65804 2.22064 1.5 2.60218 1.5 3V6C1.5 6.39782 1.65804 6.77936 1.93934 7.06066C2.22064 7.34196 2.60218 7.5 3 7.5V21C3 21.3978 3.15804 21.7794 3.43934 22.0607C3.72064 22.342 4.10218 22.5 4.5 22.5H10.5V21H4.5V19.5H8.25V9H4.5V7.5H13.5V9.75H15V7.5C15.3978 7.5 15.7794 7.34196 16.0607 7.06066C16.342 6.77936 16.5 6.39782 16.5 6V3C16.5 2.60218 16.342 2.22064 16.0607 1.93934C15.7794 1.65804 15.3978 1.5 15 1.5ZM6.75 10.5V18H4.5V10.5H6.75ZM3 6V3H15V6H3Z" fill="#4589FF"/>
</svg>
