<svg width="24" height="24" viewBox="0 0 24 24" fill="none" xmlns="http://www.w3.org/2000/svg">
<rect width="24" height="24" fill="white" style="mix-blend-mode:multiply"/>
<path d="M21 4.5V19.5H3V4.5H21ZM21 3H3C2.60218 3 2.22064 3.15804 1.93934 3.43934C1.65804 3.72064 1.5 4.10218 1.5 4.5V19.5C1.5 19.8978 1.65804 20.2794 1.93934 20.5607C2.22064 20.842 2.60218 21 3 21H21C21.3978 21 21.7794 20.842 22.0607 20.5607C22.342 20.2794 22.5 19.8978 22.5 19.5V4.5C22.5 4.10218 22.342 3.72064 22.0607 3.43934C21.7794 3.15804 21.3978 3 21 3Z" fill="#FA4D56"/>
<path d="M12 6H4.5V7.5H12V6Z" fill="#FA4D56"/>
<path d="M12 9H4.5V10.5H12V9Z" fill="#FA4D56"/>
<path d="M9 12H4.5V13.5H9V12Z" fill="#FA4D56"/>
</svg>
