<svg width="50" height="51" viewBox="0 0 50 51" fill="none" xmlns="http://www.w3.org/2000/svg">
<g clip-path="url(#clip0_267_20701)">
<path d="M43.75 6.73332V44.2667C43.7456 44.8138 43.5262 45.3372 43.1391 45.7239C42.752 46.1106 42.2284 46.3295 41.6812 46.3333H8.31875C7.77044 46.3333 7.24457 46.1157 6.85666 45.7281C6.46875 45.3406 6.25055 44.815 6.25 44.2667V6.73332C6.25436 6.1862 6.47379 5.66275 6.86087 5.27606C7.24795 4.88937 7.77162 4.67047 8.31875 4.66666H41.6812C42.8229 4.66666 43.75 5.59166 43.75 6.73332ZM23.5271 27.8375L18.3708 22.6792L15.425 25.6271L23.5271 33.7292L35.3125 21.9437L32.3667 18.9979L23.5271 27.8375Z" fill="white"/>
</g>
<defs>
<clipPath id="clip0_267_20701">
<rect width="50" height="50" fill="white" transform="translate(0 0.5)"/>
</clipPath>
</defs>
</svg>
