<svg width="76" height="76" viewBox="0 0 76 76" fill="none" xmlns="http://www.w3.org/2000/svg">
<rect width="76" height="76" fill="white" style="mix-blend-mode:multiply"/>
<path d="M16.6249 12.3737C16.2451 12.3689 15.8762 12.2459 15.5695 12.0218C15.2628 11.7978 15.0334 11.4838 14.9133 11.1234C14.7932 10.7631 14.7883 10.3742 14.8992 10.011C15.0102 9.64768 15.2315 9.32796 15.5324 9.09621C22.0855 4.46007 29.9774 2.09919 37.9999 2.37496C44.3174 2.37496 53.3899 3.4437 60.5624 8.59746C60.9547 8.87886 61.2197 9.30394 61.2998 9.77999C61.3799 10.256 61.2685 10.7445 60.9899 11.1387C60.7006 11.5288 60.2697 11.7897 59.79 11.8652C59.3103 11.9407 58.82 11.8248 58.4249 11.5425C52.3342 7.67169 45.2116 5.74195 37.9999 6.0087C30.8001 5.7641 23.7155 7.86446 17.8124 11.9937C17.4763 12.2612 17.0539 12.3964 16.6249 12.3737Z" fill="#525252"/>
<path d="M67.0462 29.1175C66.7525 29.1148 66.4637 29.0423 66.2035 28.906C65.9434 28.7698 65.7193 28.5736 65.5499 28.3337C61.4412 22.5387 54.1024 14.82 37.9999 14.82C32.646 14.6851 27.3388 15.8456 22.5297 18.2026C17.7206 20.5595 13.5521 24.0433 10.3787 28.3575C10.0937 28.7459 9.6669 29.0063 9.19106 29.0819C8.71522 29.1575 8.22877 29.0422 7.83741 28.7612C7.63211 28.6183 7.45874 28.4343 7.32831 28.2209C7.19788 28.0075 7.11323 27.7693 7.07974 27.5214C7.04624 27.2735 7.06463 27.0214 7.13373 26.781C7.20283 26.5406 7.32115 26.3172 7.48116 26.125C10.9994 21.3722 15.608 17.5344 20.9191 14.9346C26.2302 12.3349 32.0883 11.0493 37.9999 11.1862C51.3237 11.1862 61.2987 16.1262 68.4949 26.2437C68.7711 26.6408 68.8787 27.1312 68.7941 27.6075C68.7095 28.0838 68.4397 28.5072 68.0437 28.785C67.7497 28.9886 67.4036 29.104 67.0462 29.1175Z" fill="#525252"/>
<path d="M29.1649 73.625C28.7965 73.623 28.437 73.5113 28.1324 73.304C27.8278 73.0967 27.5919 72.8032 27.4549 72.4612C27.3599 72.2375 27.3118 71.9966 27.3134 71.7536C27.315 71.5105 27.3663 71.2704 27.4642 71.0479C27.5621 70.8254 27.7045 70.6253 27.8826 70.4599C28.0607 70.2945 28.2708 70.1674 28.4999 70.0862C38.8787 66.0962 45.1249 57.9262 45.1249 48.2125C45.1959 47.2586 45.0602 46.3007 44.7273 45.4041C44.3943 44.5075 43.8718 43.6932 43.1955 43.0169C42.5192 42.3406 41.7049 41.8181 40.8083 41.4851C39.9117 41.1521 38.9537 41.0165 37.9999 41.0875C33.5824 41.0875 31.4449 43.4625 30.8749 49.0437C30.6099 51.6541 29.3434 54.0602 27.3416 55.7564C25.3398 57.4527 22.7584 58.307 20.1399 58.1399C18.7318 58.1604 17.3348 57.8874 16.0379 57.3382C14.7411 56.789 13.5729 55.9758 12.6077 54.9502C11.6425 53.9247 10.9015 52.7094 10.4318 51.3817C9.96219 50.054 9.77422 48.643 9.87991 47.2387C10.0112 39.8957 13.0415 32.9027 18.3097 27.7858C23.5779 22.6689 30.6562 19.8435 37.9999 19.9262C45.5299 19.9261 52.7539 22.9059 58.0939 28.2148C63.4339 33.5237 66.456 40.7301 66.4999 48.26C66.3323 53.5619 65.2141 58.7907 63.1987 63.6975C63.0052 64.1351 62.6499 64.4808 62.2071 64.6623C61.7644 64.8438 61.2687 64.847 60.8237 64.6712C60.6029 64.5803 60.4024 64.4465 60.2337 64.2775C60.0651 64.1086 59.9316 63.9079 59.841 63.687C59.7505 63.4661 59.7046 63.2294 59.7061 62.9907C59.7077 62.752 59.7565 62.5159 59.8499 62.2962C61.6737 57.8315 62.6948 53.0798 62.8662 48.26C62.8347 41.69 60.1995 35.4005 55.5382 30.7704C50.877 26.1403 44.57 23.5473 37.9999 23.56C34.8208 23.497 31.6605 24.0618 28.6999 25.2219C25.7394 26.382 23.0368 28.1148 20.7468 30.3209C18.4569 32.527 16.6246 35.1632 15.3549 38.0784C14.0852 40.9936 13.403 44.1307 13.3474 47.31C13.2501 48.234 13.3495 49.1681 13.6393 50.0509C13.9291 50.9337 14.4025 51.7451 15.0285 52.4317C15.6546 53.1183 16.4189 53.6645 17.2712 54.0343C18.1236 54.4042 19.0446 54.5893 19.9737 54.5775C20.829 54.6625 21.6926 54.5773 22.5148 54.3267C23.337 54.0761 24.1013 53.6651 24.7638 53.1175C25.4263 52.5699 25.9737 51.8964 26.3744 51.1361C26.7752 50.3757 27.0213 49.5435 27.0987 48.6875C27.9537 41.3012 31.5874 37.5487 37.9287 37.5487C39.3657 37.4761 40.802 37.7072 42.1437 38.2271C43.4854 38.7469 44.7024 39.5438 45.7154 40.5657C46.7283 41.5877 47.5144 42.8117 48.0225 44.1579C48.5305 45.5041 48.749 46.9423 48.6637 48.3787C48.6637 59.6362 41.5387 69.0887 29.6637 73.625C29.498 73.644 29.3306 73.644 29.1649 73.625Z" fill="#525252"/>
<path d="M46.9537 71.915C46.4988 71.9076 46.0612 71.7393 45.7187 71.44C45.5492 71.2721 45.4147 71.0724 45.3229 70.8522C45.2311 70.6321 45.1838 70.396 45.1838 70.1575C45.1838 69.919 45.2311 69.6828 45.3229 69.4627C45.4147 69.2425 45.5492 69.0428 45.7187 68.875C51.0619 63.3363 54.072 55.9557 54.1262 48.26C54.1262 44.555 52.9862 32.4662 38.2137 32.4662C36.0611 32.3905 33.9151 32.7442 31.9007 33.5067C29.8863 34.2693 28.044 35.4253 26.4812 36.9075C25.0828 38.291 23.9774 39.9418 23.2307 41.7617C22.484 43.5815 22.1113 45.533 22.1349 47.5C22.1287 47.9808 21.9332 48.4399 21.591 48.7778C21.2487 49.1156 20.7871 49.305 20.3062 49.305C20.0671 49.3081 19.8299 49.2637 19.6081 49.1744C19.3864 49.0851 19.1846 48.9527 19.0145 48.7848C18.8443 48.6168 18.7092 48.4168 18.617 48.1962C18.5249 47.9757 18.4774 47.739 18.4774 47.5C18.4404 45.0668 18.8875 42.6506 19.7926 40.3918C20.6978 38.133 22.0429 36.0767 23.7499 34.3425C25.6421 32.5263 27.8761 31.1041 30.3223 30.1582C32.7685 29.2124 35.3782 28.7617 37.9999 28.8325C52.4399 28.8325 57.5699 39.2825 57.5699 48.26C57.5389 56.8264 54.2237 65.0547 48.3074 71.25C48.1441 71.4531 47.9383 71.6179 47.7044 71.7328C47.4705 71.8477 47.2142 71.9099 46.9537 71.915Z" fill="#525252"/>
<path d="M20.5674 65.8825C19.3294 65.8796 18.0925 65.8082 16.8624 65.6687C16.6254 65.6422 16.3959 65.5693 16.187 65.454C15.9782 65.3388 15.7941 65.1836 15.6452 64.9973C15.4963 64.8109 15.3856 64.5971 15.3194 64.3679C15.2532 64.1388 15.2328 63.8989 15.2593 63.6618C15.2858 63.4248 15.3587 63.1953 15.4739 62.9864C15.5891 62.7776 15.7444 62.5935 15.9307 62.4446C16.1171 62.2958 16.3309 62.1851 16.5601 62.1188C16.7892 62.0526 17.0291 62.0322 17.2662 62.0587C23.1799 62.7237 27.8349 61.6787 31.1362 58.9237C32.6579 57.5629 33.8884 55.9081 34.7538 54.0592C35.6191 52.2102 36.1012 50.2052 36.1712 48.165C36.1829 47.9245 36.2433 47.6888 36.3487 47.4724C36.4541 47.2559 36.6023 47.063 36.7843 46.9054C36.9663 46.7478 37.1784 46.6287 37.4078 46.5553C37.6371 46.482 37.879 46.4559 38.1187 46.4787C38.5974 46.5152 39.0433 46.7362 39.3623 47.0951C39.6813 47.454 39.8485 47.9227 39.8287 48.4025C39.7286 50.9427 39.1127 53.436 38.0185 55.7306C36.9242 58.0252 35.3745 60.0732 33.4637 61.75C29.7977 64.6258 25.2221 66.092 20.5674 65.8825Z" fill="#525252"/>
</svg>
