<svg width="50" height="51" viewBox="0 0 50 51" fill="none" xmlns="http://www.w3.org/2000/svg">
<g clip-path="url(#clip0_267_20661)">
<path d="M38.5714 11.5H11.4286C5.11657 11.5 0 16.6166 0 22.9286V28.0714C0 34.3834 5.11657 39.5 11.4286 39.5H38.5714C44.8834 39.5 50 34.3834 50 28.0714V22.9286C50 16.6166 44.8834 11.5 38.5714 11.5ZM21.9617 27.9857H16.3429V33.604H11.3714V27.9857H5.75257V23.0149H11.3714V17.396H16.3423V23.0149H21.9611L21.9617 27.9857ZM32.4286 25.5C29.904 25.5 27.8571 23.4531 27.8571 20.9286C27.8571 18.404 29.904 16.3571 32.4286 16.3571C34.9531 16.3571 37 18.404 37 20.9286C37 23.4531 34.9531 25.5 32.4286 25.5ZM40.8571 33.6429C38.3326 33.6429 36.2857 31.596 36.2857 29.0714C36.2857 26.5469 38.3326 24.5 40.8571 24.5C43.3817 24.5 45.4286 26.5469 45.4286 29.0714C45.4286 31.596 43.3817 33.6429 40.8571 33.6429Z" fill="white"/>
</g>
<defs>
<clipPath id="clip0_267_20661">
<rect width="50" height="50" fill="white" transform="translate(0 0.5)"/>
</clipPath>
</defs>
</svg>
