<svg width="56" height="56" viewBox="0 0 56 56" fill="none" xmlns="http://www.w3.org/2000/svg">
<path d="M28 42C24.287 42 20.726 40.525 18.1005 37.8995C15.475 35.274 14 31.713 14 28C14 24.287 15.475 20.726 18.1005 18.1005C20.726 15.475 24.287 14 28 14C31.713 14 35.274 15.475 37.8995 18.1005C40.525 20.726 42 24.287 42 28C42 31.713 40.525 35.274 37.8995 37.8995C35.274 40.525 31.713 42 28 42ZM28 45.5C32.6413 45.5 37.0925 43.6563 40.3744 40.3744C43.6563 37.0925 45.5 32.6413 45.5 28C45.5 23.3587 43.6563 18.9075 40.3744 15.6256C37.0925 12.3437 32.6413 10.5 28 10.5C23.3587 10.5 18.9075 12.3437 15.6256 15.6256C12.3437 18.9075 10.5 23.3587 10.5 28C10.5 32.6413 12.3437 37.0925 15.6256 40.3744C18.9075 43.6563 23.3587 45.5 28 45.5Z" fill="#FF766D"/>
<path d="M35 28C35 29.8565 34.2625 31.637 32.9497 32.9497C31.637 34.2625 29.8565 35 28 35C26.1435 35 24.363 34.2625 23.0503 32.9497C21.7375 31.637 21 29.8565 21 28C21 26.1435 21.7375 24.363 23.0503 23.0503C24.363 21.7375 26.1435 21 28 21C29.8565 21 31.637 21.7375 32.9497 23.0503C34.2625 24.363 35 26.1435 35 28Z" fill="#FF766D"/>
</svg>
