<svg width="50" height="51" viewBox="0 0 50 51" fill="none" xmlns="http://www.w3.org/2000/svg">
<path d="M4.16669 19.7926C4.16669 27.5998 12.5405 35.8571 18.6703 40.8556C21.4452 43.1185 22.8327 44.25 25 44.25C27.1673 44.25 28.5548 43.1185 31.3298 40.8556C37.4596 35.8571 45.8334 27.6 45.8334 19.7925C45.8334 7.47773 34.3746 1.88049 25 11.9558C15.6254 1.88049 4.16669 7.47812 4.16669 19.7926Z" fill="white"/>
<path d="M21.0275 22.8888C21.214 22.6223 21.369 22.401 21.5069 22.2117C21.6235 22.4148 21.7537 22.6515 21.9104 22.9365L25.4735 29.4146C25.8194 30.044 26.1587 30.6613 26.4994 31.1092C26.864 31.5883 27.5048 32.2452 28.5321 32.2644C29.5592 32.2838 30.2244 31.6515 30.6067 31.1863C30.964 30.7515 31.326 30.1475 31.6954 29.5317L31.8108 29.3392C32.2708 28.5725 32.5604 28.0931 32.8167 27.7469C33.0529 27.4279 33.1894 27.3238 33.2913 27.2663C33.3929 27.2085 33.5525 27.1452 33.9475 27.1067C34.3762 27.065 34.9363 27.0633 35.8304 27.0633H37.5C38.3629 27.0633 39.0625 26.3638 39.0625 25.5008C39.0625 24.6379 38.3629 23.9383 37.5 23.9383H35.7629C34.9565 23.9383 34.2431 23.9383 33.6452 23.9965C32.9969 24.0594 32.366 24.1988 31.7515 24.5469C31.1369 24.8948 30.6927 25.364 30.3052 25.8875C29.9477 26.3702 29.5808 26.9819 29.1658 27.6735L29.0669 27.8385C28.8862 28.1398 28.7354 28.3906 28.6008 28.606C28.4742 28.3858 28.3331 28.1294 28.1637 27.8217L24.6025 21.3465C24.2815 20.7623 23.9615 20.1803 23.6371 19.7537C23.2825 19.2876 22.6748 18.6714 21.7008 18.6188C20.7268 18.5662 20.0562 19.1134 19.6536 19.5386C19.2851 19.9278 18.9044 20.472 18.5223 21.0182L17.8777 21.939C17.4045 22.615 17.1078 23.0363 16.851 23.34C16.6146 23.6196 16.4832 23.7113 16.3862 23.7617C16.2892 23.8123 16.1388 23.8673 15.7741 23.9006C15.378 23.9369 14.8628 23.9383 14.0376 23.9383H12.5C11.6371 23.9383 10.9375 24.6379 10.9375 25.5008C10.9375 26.3638 11.6371 27.0633 12.5 27.0633H14.1002C14.8439 27.0633 15.5032 27.0635 16.0584 27.0127C16.6606 26.9577 17.248 26.8363 17.8294 26.5335C18.4107 26.2308 18.8471 25.8194 19.2375 25.3575C19.5974 24.9317 19.9754 24.3917 20.4019 23.7823L21.0275 22.8888Z" fill="#B845FF"/>
</svg>
