<svg width="50" height="51" viewBox="0 0 50 51" fill="none" xmlns="http://www.w3.org/2000/svg">
<g clip-path="url(#clip0_267_20639)">
<path d="M16.615 22.239H11.6461V27.2082H16.615V22.239Z" fill="white"/>
<path d="M38.3539 22.239H33.3851V27.2082H38.3539V22.239Z" fill="white"/>
<path d="M31.1077 22.239H26.1389V27.2082H31.1077V22.239Z" fill="white"/>
<path d="M16.615 30.0029H11.6461V34.9722H16.615V30.0029Z" fill="white"/>
<path d="M31.1077 30.0029H26.1389V34.9722H31.1077V30.0029Z" fill="white"/>
<path d="M23.8614 30.0029H18.8926V34.9722H23.8614V30.0029Z" fill="white"/>
<path d="M38.3539 37.7668H33.3851V42.736H38.3539V37.7668Z" fill="white"/>
<path d="M31.1077 37.7668H26.1389V42.736H31.1077V37.7668Z" fill="white"/>
<path d="M23.8614 37.7668H18.8926V42.736H23.8614V37.7668Z" fill="white"/>
<path d="M42.8982 5.87558H38.8575V9.7496C38.8575 11.1951 37.6666 12.3707 36.2029 12.3707H30.9271C29.4634 12.3707 28.2726 11.1951 28.2726 9.7496V5.87558H21.7204V9.71318C21.7204 11.1788 20.5164 12.3707 19.0364 12.3707H13.8193C12.3393 12.3707 11.1353 11.1788 11.1353 9.71318V5.87558H7.09464C4.4671 5.87558 2.32941 7.99394 2.32941 10.5977V45.7779C2.32941 48.3815 4.4671 50.5 7.09464 50.5H42.8982C45.5297 50.5 47.6706 48.3816 47.6706 45.7779V10.5977C47.6706 7.99404 45.5297 5.87558 42.8982 5.87558ZM44.2546 45.6862C44.2546 46.5222 43.693 47.0836 42.857 47.0836H7.14298C6.30704 47.0836 5.74542 46.5222 5.74542 45.6862V17.8915H44.2546V45.6862Z" fill="white"/>
<path d="M13.8208 10.5105H19.0349C19.4764 10.5105 19.8356 10.1537 19.8356 9.71514V2.50127C19.8356 1.39775 18.9303 0.5 17.8174 0.5H15.0382C13.9254 0.5 13.0198 1.39766 13.0198 2.50127V9.71514C13.0199 10.1537 13.3791 10.5105 13.8208 10.5105Z" fill="white"/>
<path d="M30.9271 10.5105H36.203C36.6276 10.5105 36.9729 10.1674 36.9729 9.74619V2.47051C36.9729 1.38408 36.0815 0.5 34.9855 0.5H32.1446C31.0488 0.5 30.1573 1.38408 30.1573 2.47051V9.74619C30.1573 10.1674 30.5027 10.5105 30.9271 10.5105Z" fill="white"/>
</g>
<defs>
<clipPath id="clip0_267_20639">
<rect width="50" height="50" fill="white" transform="translate(0 0.5)"/>
</clipPath>
</defs>
</svg>
